<?xml version="1.0" encoding="utf-8"?>
<!-- Generator: Adobe Illustrator 24.1.2, SVG Export Plug-In . SVG Version: 6.00 Build 0)  -->
<svg version="1.1" id="Warstwa_1" xmlns="http://www.w3.org/2000/svg" xmlns:xlink="http://www.w3.org/1999/xlink" x="0px" y="0px"
	 viewBox="0 0 430 430" style="enable-background:new 0 0 430 430;" xml:space="preserve">
<style type="text/css">
	.st0{fill:#e8308c;}
	.st1{fill:#3080e8;}
	.st2{fill:#3080e8;}
	.st3{fill:none;stroke:#e8308c;stroke-width:12;stroke-linecap:round;stroke-linejoin:round;stroke-miterlimit:10;}
	.st4{fill:#08A183;}
</style>
<g>
	<path class="st1" d="M202.29,354.43c-3.31,0-6-2.69-6-6V310.5c0-11.63-9.46-21.09-21.09-21.09s-21.09,9.46-21.09,21.09v37.93
		c0,3.31-2.69,6-6,6s-6-2.69-6-6V310.5c0-18.25,14.85-33.09,33.09-33.09s33.09,14.85,33.09,33.09v37.93
		C208.29,351.75,205.6,354.43,202.29,354.43z"/>
	<path class="st1" d="M122.67,354.43c-3.31,0-6-2.69-6-6V310.5c0-11.63-9.46-21.09-21.09-21.09s-21.09,9.46-21.09,21.09v37.93
		c0,3.31-2.69,6-6,6s-6-2.69-6-6V310.5c0-18.25,14.85-33.09,33.09-33.09s33.09,14.85,33.09,33.09v37.93
		C128.67,351.75,125.99,354.43,122.67,354.43z"/>
	<path class="st1" d="M281.9,354.43c-3.31,0-6-2.69-6-6V310.5c0-11.63-9.46-21.09-21.09-21.09s-21.09,9.46-21.09,21.09v37.93
		c0,3.31-2.69,6-6,6s-6-2.69-6-6V310.5c0-18.25,14.85-33.09,33.09-33.09s33.09,14.85,33.09,33.09v37.93
		C287.9,351.75,285.21,354.43,281.9,354.43z"/>
	<path class="st1" d="M361.51,354.43c-3.31,0-6-2.69-6-6V310.5c0-11.63-9.46-21.09-21.09-21.09s-21.09,9.46-21.09,21.09v37.93
		c0,3.31-2.69,6-6,6s-6-2.69-6-6V310.5c0-18.25,14.85-33.09,33.09-33.09s33.09,14.85,33.09,33.09v37.93
		C367.51,351.75,364.83,354.43,361.51,354.43z"/>
	<path class="st0" d="M375.12,75.57H54.88c-3.31,0-6,2.69-6,6v160.12c0,3.31,2.69,6,6,6h320.24c3.31,0,6-2.69,6-6V81.57
		C381.12,78.25,378.43,75.57,375.12,75.57z M60.88,140.94h28.03v41.37H60.88V140.94z M100.91,87.57h228.18v148.12H100.91V87.57z
		 M341.09,140.94h28.03v41.37h-28.03V140.94z M369.12,128.94h-28.03V87.57h28.03V128.94z M88.91,87.57v41.37H60.88V87.57H88.91z
		 M60.88,194.31h28.03v41.37H60.88V194.31z M341.09,235.69v-41.37h28.03v41.37H341.09z"/>
	<path class="st1" d="M184.47,198.02c-1.11,0-2.21-0.31-3.18-0.91c-1.76-1.1-2.82-3.02-2.82-5.09v-60.79c0-2.08,1.08-4.02,2.86-5.11
		c1.78-1.09,3.99-1.18,5.85-0.24l61.07,30.91c2.03,1.03,3.31,3.12,3.29,5.39c-0.02,2.28-1.32,4.35-3.36,5.35l-61.07,29.87
		C186.27,197.82,185.37,198.02,184.47,198.02z M190.47,141v41.41l41.6-20.35L190.47,141z"/>
	<path class="st0" d="M375.12,354.43H54.88c-3.31,0-6-2.69-6-6s2.69-6,6-6h320.24c3.31,0,6,2.69,6,6S378.43,354.43,375.12,354.43z"
		/>
</g>
</svg>
