<?xml version="1.0" encoding="utf-8"?>
<!-- Generator: Adobe Illustrator 24.1.2, SVG Export Plug-In . SVG Version: 6.00 Build 0)  -->
<svg version="1.1" id="Warstwa_1" xmlns="http://www.w3.org/2000/svg" xmlns:xlink="http://www.w3.org/1999/xlink" x="0px" y="0px"
	 viewBox="0 0 430 430" style="enable-background:new 0 0 430 430;" xml:space="preserve">
<style type="text/css">
	.st0{fill:#e8308c;}
	.st1{fill:#3080e8;}
	.st2{fill:none;}
	.st3{fill:#00A689;}
</style>
<g>
	<path class="st0" d="M321.62,104.02c-13.29-20.48-29.7-34.81-50.16-43.79c-8.75-3.84-18.29-6.7-28.75-8.59
		c-0.04-0.01-0.08-0.01-0.12-0.02c-10.38-1.87-21.67-2.79-34.03-2.79c-9.05,0-17.9,0.85-26.48,2.46c-0.28,0.03-0.56,0.09-0.84,0.16
		C115.16,64.24,65.11,122.52,65.11,192.28c0,84.99,29.24,175.91,29.53,176.82c0.81,2.49,3.12,4.14,5.7,4.14c0.15,0,0.3,0,0.45-0.02
		c2.76-0.21,5.02-2.27,5.47-4.99c8.81-52.67,35.47-80.19,35.92-80.65c2.34-2.34,2.34-6.14,0-8.48c-2.34-2.34-6.14-2.35-8.49,0
		c-1.03,1.03-22.03,22.41-34.05,64.1c-8.53-31.78-22.54-92.84-22.54-150.92c0-62.22,43.46-114.48,101.61-128.03l14.54,44.19
		c0.83,2.52,3.18,4.13,5.7,4.13c0.62,0,1.25-0.1,1.88-0.3c3.15-1.04,4.86-4.43,3.82-7.58l-14.03-42.62
		c5.86-0.8,11.84-1.23,17.92-1.23c9.01,0,17.43,0.53,25.32,1.59l-12.18,41.35c-0.94,3.18,0.88,6.51,4.06,7.45
		c0.57,0.17,1.14,0.25,1.7,0.25c2.59,0,4.98-1.69,5.75-4.31l12.56-42.63c26.41,5.87,46.27,18.91,61.78,40.2
		c-34.83,16.49-47.04,39.81-47.57,40.85c-1.5,2.95-0.33,6.57,2.62,8.07c2.95,1.5,6.57,0.33,8.07-2.62
		c0.12-0.23,12.24-23.37,48.2-38.19c1.65-0.68,2.91-2.06,3.44-3.76C322.85,107.37,322.59,105.52,321.62,104.02z"/>
	<path class="st1" d="M358.89,381.17c-0.22,0-0.44-0.01-0.66-0.04l-67.6-7.43c-21.28-2.34-40.63-13.68-53.07-31.1l-12.45-17.44
		c-1.48-2.08-3.89-3.32-6.44-3.32c-2.28,0-4.46,0.99-5.96,2.7l-26.24,30.01c-8.77,10.04-21.45,15.79-34.78,15.79h-10.23
		c-4.21,0-8.08-2.29-10.11-5.97c-2.03-3.68-1.89-8.18,0.35-11.74c9.9-15.67,12.13-34.7,6.11-52.23c-1.3-3.33-19.58-50.5-19.58-71.57
		c0-54.87,44.64-99.52,99.52-99.52c27.5,0,53.55,11.29,72.32,31.15l4.72-3.58c1.52-1.15,3.5-1.51,5.33-0.97
		c1.83,0.54,3.29,1.93,3.94,3.73l25.7,71.61c1.09,3.03-0.41,6.38-3.4,7.59l-58.37,23.58c-4.8,1.94-7.9,6.54-7.9,11.71
		c0,6.93,5.63,12.59,12.56,12.63l51.49,0.28c2.4,0.01,4.56,1.45,5.49,3.66l34.76,82.13c0.83,1.96,0.56,4.21-0.71,5.92
		C362.57,380.29,360.78,381.17,358.89,381.17z M218.68,309.85c6.42,0,12.48,3.12,16.21,8.34l12.45,17.44
		c10.46,14.65,26.72,24.18,44.62,26.15l57.43,6.31l-29.23-69.07l-47.54-0.26c-13.51-0.07-24.5-11.12-24.5-24.63
		c0-10.09,6.05-19.06,15.41-22.84l53.02-21.42l-20.99-58.49L215.1,232.4c-2.64,2-6.4,1.48-8.41-1.16c-2-2.64-1.48-6.4,1.16-8.41
		l72.61-55.06c-16.44-16.88-38.95-26.45-62.7-26.45c-48.26,0-87.52,39.26-87.52,87.52c0,15.87,13.57,53.97,18.8,67.31
		c0.03,0.08,0.06,0.15,0.08,0.23c7.17,20.77,4.67,43.3-6.83,61.97h9.41c9.87,0,19.25-4.26,25.75-11.69l26.23-30.01
		C207.47,312.33,212.93,309.85,218.68,309.85z"/>
</g>
</svg>
