<svg version="1.1" id="Capa_1" xmlns="http://www.w3.org/2000/svg" xmlns:xlink="http://www.w3.org/1999/xlink" x="0px" y="0px"
	 viewBox="0 0 320 320" style="enable-background:new 0 0 320 320;" xml:space="preserve">
<g id="XMLID_235_">
	<rect id="XMLID_236_" x="110" y="160" style="fill:#0052B4;" width="100" height="160"/>
	<rect id="XMLID_237_" x="10" y="260" style="fill:#0052B4;" width="100" height="60"/>
	<rect id="XMLID_238_" x="60" y="260" style="fill:#006DF0;" width="50" height="60"/>
	<rect id="XMLID_239_" x="160" y="160" style="fill:#78B9EB;" width="50" height="160"/>
	<polygon id="XMLID_240_" style="fill:#FFDA44;" points="210,160 160,160 160,130 180,130 	"/>
	<polygon id="XMLID_241_" style="fill:#FF9811;" points="110,160 160,160 160,130 140,130 	"/>
	<rect id="XMLID_242_" x="210" y="210" style="fill:#0052B4;" width="100" height="110"/>
	<rect id="XMLID_243_" x="260" y="210" style="fill:#006DF0;" width="50" height="110"/>
	<g id="XMLID_244_">
		<circle id="XMLID_245_" style="fill:#BF720D;" cx="90.361" cy="68.461" r="11.538"/>
		<circle id="XMLID_307_" style="fill:#BF720D;" cx="83.437" cy="43.077" r="23.077"/>
		<circle id="XMLID_308_" style="fill:#FFFFFF;" cx="83.437" cy="43.077" r="9.231"/>
	</g>
	<g id="XMLID_309_">
		<circle id="XMLID_311_" style="fill:#FF9811;" cx="229.639" cy="68.461" r="11.538"/>
		<circle id="XMLID_312_" style="fill:#FF9811;" cx="236.562" cy="43.077" r="23.077"/>
		<circle id="XMLID_333_" style="fill:#FFFFFF;" cx="236.562" cy="43.077" r="9.231"/>
	</g>
	<path id="XMLID_334_" style="fill:#FFDA44;" d="M90,17.272V30c0,38.66,31.34,70,70,70s70-31.34,70-70V17.272H90z"/>
	<path id="XMLID_337_" style="fill:#FF9811;" d="M160,17.272H90V30c0,38.66,31.34,70,70,70V17.272z"/>
	<g id="XMLID_338_">
		<rect id="XMLID_340_" x="90" style="fill:#BF720D;" width="70" height="20"/>
		<rect id="XMLID_341_" x="160" style="fill:#FF9811;" width="70" height="20"/>
	</g>
	<rect id="XMLID_348_" x="140" y="90" style="fill:#FF9811;" width="20" height="40"/>
	<rect id="XMLID_350_" x="160" y="90" style="fill:#FFDA44;" width="20" height="40"/>
	<rect id="XMLID_351_" x="140" y="280" style="fill:#FF9811;" width="20" height="20"/>
	<rect id="XMLID_352_" x="160" y="280" style="fill:#FFDA44;" width="20" height="20"/>
	<rect id="XMLID_439_" x="40" y="280" style="fill:#FF9811;" width="20" height="20"/>
	<rect id="XMLID_440_" x="60" y="280" style="fill:#FFDA44;" width="20" height="20"/>
	<rect id="XMLID_441_" x="240" y="280" style="fill:#FF9811;" width="20" height="20"/>
	<rect id="XMLID_443_" x="260" y="280" style="fill:#FFDA44;" width="20" height="20"/>
</g>
<g>
</g>
<g>
</g>
<g>
</g>
<g>
</g>
<g>
</g>
<g>
</g>
<g>
</g>
<g>
</g>
<g>
</g>
<g>
</g>
<g>
</g>
<g>
</g>
<g>
</g>
<g>
</g>
<g>
</g>
</svg>
